# xmcd
#
# Track frame offsets: 
#        150
#        19268
#        36809
#        51762
#        63771
#        85164
#        106598
#        118334
#        141120
#        152696
#        165733
#        184521
#        206699
#        225776
#        240383
#        253328
#        265317
#        286524
#        297399
#        317667
#        329508
#
# Disc length: 4555 seconds
#
# Revision: 0
# Processed by: cddbd v1.5.1PL2 Copyright (c) Steve Scherf et al.
# Submitted via: ExactAudioCopy v0.95b3
#
DISCID=2011c915
DTITLE=Lightnin' Hopkins - Kings Of The Blues
DYEAR=2004
DGENRE=Blues
TTITLE0=Good Times
TTITLE1=California Mudslide
TTITLE2=Big Car Blues
TTITLE3=Lonesome Dog
TTITLE4=Shake It Baby
TTITLE5=Don't Wake Me
TTITLE6=Sittin' Down Thinkin'
TTITLE7=I'll Be Gone
TTITLE8=Easy On Your Heels
TTITLE9=Jake Head Boogie
TTITLE10=Don't Treat That Man The Way You Treat Me
TTITLE11=I'm Gonna Meet My Baby Somewhere
TTITLE12=Leave Jike Mary Alone
TTITLE13=Santa Fe Blues
TTITLE14=Rosie Mae
TTITLE15=Shinin' Moon
TTITLE16=Goin' Back Home
TTITLE17=What'd I Say
TTITLE18=You Treat Po' Lightnin' Wrong
TTITLE19=Talk Of The Town
TTITLE20=Shaggy Dad
EXTD=
EXTT0=
EXTT1=
EXTT2=
EXTT3=
EXTT4=
EXTT5=
EXTT6=
EXTT7=
EXTT8=
EXTT9=
EXTT10=
EXTT11=
EXTT12=
EXTT13=
EXTT14=
EXTT15=
EXTT16=
EXTT17=
EXTT18=
EXTT19=
EXTT20=
PLAYORDER=
